<svg
    xmlns="http://www.w3.org/2000/svg"
    width="100%"
    height="100%"
    viewBox="0 0 347 314"
    
  >
    <g>
      <path
        d="M 81.00 193.00 C78.78,195.22 75.54,195.53 72.50,193.81 C71.40,193.18 66.40,189.16 61.39,184.87 C54.15,178.67 51.81,175.98 50.02,171.82 C45.42,161.14 49.42,148.73 59.45,142.53 C63.96,139.74 65.06,139.50 73.42,139.50 C85.12,139.50 89.92,141.75 103.25,153.50 L 113.00 162.10 L 113.00 137.00 L 42.05 137.00 L 41.78 152.48 L 41.50 167.97 L 32.00 159.84 L 32.00 146.64 C32.00,136.32 32.34,132.96 33.56,131.22 L 35.11 129.00 L 78.02 129.00 C119.42,129.00 120.97,129.07 121.96,130.93 C123.28,133.40 123.39,187.00 122.08,187.00 C120.78,187.00 116.65,183.52 99.79,168.25 C91.70,160.92 83.83,154.27 82.29,153.47 C78.63,151.56 71.67,151.60 67.87,153.57 C64.32,155.40 61.57,161.14 62.48,164.79 C62.83,166.17 67.59,171.62 73.07,176.90 C83.64,187.09 84.72,189.28 81.00,193.00 ZM 312.98 178.75 C309.30,180.63 306.97,181.00 298.79,181.00 L 289.00 181.00 L 289.00 146.74 L 299.85 147.19 C311.71,147.68 315.46,149.05 319.40,154.32 C321.06,156.55 321.50,158.59 321.50,164.00 C321.50,172.17 319.68,175.33 312.98,178.75 ZM 190.00 173.08 L 190.00 181.00 L 161.00 181.00 L 161.00 147.00 L 189.00 147.00 L 189.00 156.00 L 180.50 156.00 C172.67,156.00 172.00,156.16 172.00,158.00 C172.00,159.83 172.67,160.00 180.00,160.00 L 188.00 160.00 L 188.00 168.00 L 179.93 168.00 C172.13,168.00 171.87,168.08 172.18,170.25 C172.48,172.36 173.04,172.52 181.25,172.79 ZM 259.00 178.50 C258.14,180.76 257.50,181.00 252.42,181.00 C248.31,181.00 246.92,180.66 247.30,179.75 C247.58,179.06 250.82,171.41 254.50,162.75 L 261.19 147.00 L 272.65 147.00 L 278.93 162.75 C282.39,171.41 285.44,179.06 285.71,179.75 C286.08,180.67 284.60,181.00 280.13,181.00 C274.47,181.00 273.99,180.82 273.41,178.50 C272.82,176.16 272.38,176.00 266.37,176.00 C260.44,176.00 259.88,176.19 259.00,178.50 ZM 149.07 181.00 C147.11,181.54 144.60,181.95 143.50,181.89 C138.01,181.63 128.92,178.30 127.52,176.04 C127.07,175.30 129.04,170.02 130.43,168.28 C130.52,168.17 132.79,169.18 135.47,170.53 C141.31,173.49 146.31,173.86 145.82,171.29 C145.61,170.20 143.15,168.78 139.00,167.35 C131.54,164.78 129.00,162.22 129.00,157.29 C129.00,154.65 129.83,152.97 132.40,150.40 C135.67,147.13 136.09,147.00 143.43,147.00 C150.31,147.00 158.00,148.85 158.00,150.50 C158.00,151.06 155.08,157.12 154.46,157.83 C154.30,158.01 151.71,157.38 148.70,156.43 C143.40,154.76 139.27,155.00 140.45,156.92 C140.76,157.43 143.98,158.83 147.59,160.03 C152.63,161.71 154.62,162.95 156.13,165.36 C159.89,171.37 156.48,178.94 149.07,181.00 ZM 241.00 156.00 L 241.00 181.00 L 230.00 181.00 L 230.00 156.00 L 225.67 156.00 C223.28,156.00 221.13,155.80 220.89,155.55 C220.64,155.31 220.61,153.28 220.82,151.05 L 221.21 147.00 L 251.00 147.00 L 251.00 156.00 ZM 220.00 172.00 L 220.00 181.00 L 195.00 181.00 L 195.00 147.00 L 206.00 147.00 L 206.00 172.00 ZM 300.67 172.33 C302.88,174.54 308.69,171.46 310.04,167.37 C312.03,161.36 308.87,156.00 303.35,156.00 L 300.00 156.00 L 300.00 163.83 C300.00,168.14 300.30,171.97 300.67,172.33 ZM 263.07 167.25 C263.03,167.66 264.55,168.00 266.44,168.00 L 269.88 168.00 L 268.27 163.27 L 266.66 158.55 L 264.90 162.52 C263.94,164.71 263.11,166.84 263.07,167.25 Z"
        fill="rgb(19,38,33)"
      />
      <path
        d="M 91.50 225.51 C78.79,231.68 77.13,231.79 67.78,227.05 C54.21,220.17 45.68,213.22 39.10,203.65 C34.90,197.54 33.30,191.49 32.42,178.38 C31.84,169.72 31.96,168.00 33.16,168.00 C33.95,168.00 38.17,171.20 42.55,175.12 C71.15,200.73 74.62,203.02 81.30,200.80 C85.09,199.53 89.95,195.27 90.12,193.06 C90.19,192.20 90.59,193.86 91.01,196.74 C91.44,199.62 92.04,202.66 92.36,203.49 C93.16,205.58 99.00,205.53 99.00,203.44 C99.00,202.52 99.47,202.17 100.16,202.60 C102.41,203.99 92.74,211.73 86.47,213.55 C75.71,216.68 66.12,213.47 53.62,202.58 C49.43,198.92 46.00,196.33 46.00,196.81 C46.00,198.50 51.71,205.57 56.38,209.69 C61.27,213.99 75.62,222.00 78.44,222.00 C82.78,222.00 97.43,212.85 103.75,206.20 C108.90,200.77 109.45,201.39 104.42,206.96 C102.30,209.31 101.14,211.41 101.57,212.12 C102.03,212.86 101.88,213.05 101.17,212.60 C100.42,212.14 100.24,212.45 100.64,213.49 C101.19,214.93 101.43,214.92 103.13,213.38 C104.17,212.45 105.31,211.97 105.67,212.33 C106.03,212.70 107.94,211.80 109.91,210.35 C112.28,208.60 111.30,209.98 107.00,214.42 C101.92,219.67 98.53,222.10 91.50,225.51 ZM 224.55 198.55 C222.66,200.43 221.04,201.00 217.55,201.00 L 213.00 201.00 L 213.00 185.72 L 218.25 186.33 C226.62,187.31 229.74,193.35 224.55,198.55 ZM 158.96 200.02 C154.13,202.61 147.00,198.88 147.00,193.77 C147.00,186.08 157.99,183.21 161.49,189.98 C163.23,193.34 161.95,198.42 158.96,200.02 ZM 298.00 199.00 C298.00,200.10 297.55,201.00 297.00,201.00 C296.42,201.00 296.00,197.83 296.00,193.50 L 296.00 186.00 L 298.93 186.00 C305.87,186.00 309.48,190.09 306.53,194.60 C305.32,196.44 305.33,197.03 306.62,198.87 C307.95,200.77 307.95,201.00 306.57,201.00 C305.71,201.00 304.45,200.10 303.77,199.00 C303.08,197.90 301.50,197.00 300.26,197.00 C298.67,197.00 298.00,197.59 298.00,199.00 ZM 198.64 199.50 C198.32,200.32 197.40,201.00 196.59,201.00 C194.64,201.00 201.05,186.63 203.20,186.21 C205.02,185.85 211.46,200.28 209.75,200.89 C209.16,201.10 208.14,200.54 207.48,199.64 C205.93,197.52 199.44,197.42 198.64,199.50 ZM 293.00 200.06 C293.00,200.58 290.52,201.00 287.50,201.00 L 282.00 201.00 L 282.00 186.00 L 287.00 186.00 C290.78,186.00 292.00,186.37 292.00,187.50 C292.00,188.59 290.88,189.00 287.93,189.00 C284.59,189.00 283.91,189.32 284.18,190.75 C284.42,191.98 285.64,192.59 288.28,192.81 C292.94,193.20 292.19,195.00 287.37,195.00 C284.56,195.00 283.92,195.35 284.19,196.75 C284.43,198.03 285.66,198.58 288.76,198.81 C291.09,198.98 293.00,199.54 293.00,200.06 ZM 174.96 199.55 C173.14,201.74 165.00,201.19 165.00,198.87 C165.00,198.35 166.69,198.05 168.75,198.21 C173.64,198.59 173.77,196.39 169.00,194.14 C164.68,192.10 163.91,188.92 167.31,187.10 C170.32,185.49 174.39,186.01 174.78,188.05 C175.01,189.28 174.33,189.52 171.54,189.19 C166.90,188.65 167.00,190.35 171.75,192.67 C175.74,194.62 176.93,197.17 174.96,199.55 ZM 264.80 199.80 C263.34,201.26 259.14,201.31 256.73,199.91 C254.25,198.46 255.59,196.71 258.14,198.07 C259.25,198.67 260.80,198.91 261.58,198.61 C264.11,197.64 263.09,195.43 259.50,194.14 C256.79,193.16 256.00,192.31 256.00,190.41 C256.00,187.44 259.67,185.45 263.43,186.39 C267.17,187.33 266.58,189.00 262.50,189.00 C260.58,189.00 259.00,189.47 259.00,190.05 C259.00,190.63 260.58,191.76 262.50,192.56 C266.19,194.11 267.23,197.37 264.80,199.80 ZM 319.80 199.80 C318.08,201.52 313.42,201.28 311.52,199.38 C309.28,197.14 310.36,196.49 313.91,197.96 C316.80,199.16 319.00,198.76 319.00,197.02 C319.00,196.55 317.31,195.34 315.25,194.33 C310.56,192.04 309.68,188.56 313.36,186.88 C316.03,185.66 321.00,186.40 321.00,188.02 C321.00,188.56 319.42,189.00 317.50,189.00 C315.58,189.00 314.00,189.44 314.00,189.99 C314.00,190.53 315.58,191.63 317.50,192.44 C321.20,193.98 322.25,197.35 319.80,199.80 ZM 187.96 199.55 C186.39,201.44 181.90,201.41 179.44,199.49 C177.63,198.07 177.76,197.99 181.50,198.24 C186.61,198.57 186.88,196.44 182.01,194.14 C180.10,193.23 178.39,191.76 178.21,190.87 C177.71,188.26 180.88,185.86 184.38,186.20 C188.48,186.60 188.40,188.41 184.25,188.81 C179.99,189.22 180.14,190.42 184.75,192.67 C188.74,194.62 189.93,197.17 187.96,199.55 ZM 250.17 199.35 C247.94,201.37 244.04,201.48 241.47,199.60 C239.98,198.51 239.55,196.94 239.53,192.45 C239.51,188.72 239.94,186.54 240.75,186.26 C241.65,185.95 242.00,187.38 242.00,191.38 C242.00,195.84 242.38,197.13 243.93,197.96 C246.21,199.18 248.95,198.36 249.12,196.39 C249.19,195.63 249.36,194.55 249.50,194.00 C249.64,193.45 249.81,191.43 249.88,189.50 C250.09,183.54 252.00,185.65 252.00,191.85 C252.00,196.24 251.55,198.10 250.17,199.35 ZM 152.22 197.44 C153.44,198.30 154.69,199.00 155.00,199.00 C156.78,199.00 160.00,195.55 160.00,193.64 C160.00,190.68 158.19,189.00 155.00,189.00 C149.91,189.00 148.09,194.55 152.22,197.44 ZM 216.67 198.33 C218.83,200.50 224.00,197.12 224.00,193.55 C224.00,190.62 222.15,189.00 218.80,189.00 C216.16,189.00 216.00,189.25 216.00,193.33 C216.00,195.72 216.30,197.97 216.67,198.33 ZM 275.00 195.00 C275.00,199.67 274.67,201.00 273.50,201.00 C272.34,201.00 272.00,199.67 272.00,195.07 C272.00,189.68 271.79,189.11 269.75,188.82 C265.52,188.22 267.97,186.50 273.49,186.20 C277.93,185.96 279.00,186.20 279.00,187.45 C279.00,188.33 278.14,189.00 277.00,189.00 C275.22,189.00 275.00,189.67 275.00,195.00 ZM 234.80 199.80 C233.20,201.40 229.51,201.32 228.13,199.66 C226.63,197.85 227.83,196.84 230.07,198.04 C232.33,199.25 233.11,198.12 233.62,192.91 C233.96,189.33 233.79,189.00 231.56,189.00 C230.22,189.00 228.84,188.55 228.50,188.00 C227.84,186.93 227.86,186.92 232.75,186.51 L 236.00 186.23 L 236.00 192.42 C236.00,195.89 235.47,199.13 234.80,199.80 ZM 146.00 200.06 C146.00,200.58 143.98,201.00 141.50,201.00 L 137.00 201.00 L 137.00 194.00 C137.00,185.60 138.77,184.59 139.20,192.75 C139.50,198.43 139.54,198.50 142.75,198.81 C144.54,198.99 146.00,199.55 146.00,200.06 ZM 298.00 191.50 C298.00,193.86 298.33,194.10 301.25,193.81 C303.73,193.57 304.50,193.03 304.50,191.50 C304.50,189.97 303.73,189.43 301.25,189.19 C298.33,188.90 298.00,189.14 298.00,191.50 ZM 201.47 193.25 C200.88,195.60 201.09,196.00 202.89,196.00 C205.15,196.00 205.69,193.64 204.04,191.03 C202.90,189.23 202.37,189.69 201.47,193.25 Z"
        fill="rgb(126,93,42)"
      />
      <path
        d="M 78.08 214.68 C80.85,214.76 83.62,214.38 86.47,213.55 C92.74,211.73 102.41,203.99 100.16,202.60 C99.47,202.17 99.00,202.52 99.00,203.44 C99.00,205.53 93.16,205.58 92.36,203.49 C92.04,202.66 91.44,199.62 91.01,196.74 C90.59,193.86 90.19,192.20 90.12,193.06 C90.05,194.06 89.02,195.46 87.58,196.82 C89.09,195.06 89.97,192.90 90.16,190.40 C90.36,187.98 90.10,186.00 89.59,186.00 C89.08,186.00 88.88,185.78 89.15,185.52 C89.72,184.95 78.28,173.00 77.17,173.00 C75.81,173.00 68.94,165.40 69.65,164.69 C70.02,164.31 69.81,164.00 69.17,164.00 C68.53,164.00 68.00,163.32 68.00,162.50 C68.00,161.68 68.44,161.00 68.97,161.00 C69.50,161.00 69.69,160.36 69.39,159.57 C68.54,157.35 73.41,154.63 76.40,155.66 C80.46,157.05 101.08,176.96 103.13,181.47 C107.39,190.86 104.48,202.25 96.22,208.56 C90.39,213.01 84.39,215.06 78.08,214.68 ZM 91.50 225.51 C98.53,222.10 101.92,219.67 107.00,214.42 C111.30,209.98 112.28,208.60 109.91,210.35 C107.94,211.80 106.03,212.70 105.67,212.33 C105.31,211.97 104.17,212.45 103.13,213.38 C101.43,214.92 101.19,214.93 100.64,213.49 C100.24,212.45 100.42,212.14 101.17,212.60 C101.88,213.05 102.03,212.86 101.57,212.12 C101.14,211.41 102.30,209.31 104.42,206.96 C109.45,201.39 108.90,200.77 103.75,206.20 C99.27,210.91 90.61,216.88 84.40,219.96 C89.75,217.22 96.87,212.18 101.50,207.50 C105.35,203.61 108.69,199.77 108.92,198.96 C109.15,198.16 110.24,194.88 111.33,191.68 L 113.33 185.86 L 117.36 189.89 L 121.40 193.93 L 118.45 200.20 C113.78,210.13 103.74,219.66 92.00,225.31 C89.06,226.72 86.69,227.83 84.69,228.64 C80.75,230.27 78.20,230.73 75.40,230.16 C73.25,229.72 70.97,228.67 67.78,227.05 C70.97,228.67 73.26,229.72 75.40,230.16 C78.18,230.72 80.72,230.26 84.69,228.64 C86.58,227.87 88.79,226.83 91.50,225.51 ZM 64.03 140.22 L 68.50 138.05 L 55.28 138.03 L 42.05 138.00 L 41.50 167.97 L 41.78 152.48 L 42.05 137.00 L 113.00 137.00 L 113.00 138.00 L 95.25 138.05 L 77.50 138.10 L 83.74 140.42 C84.57,140.73 85.39,141.07 86.22,141.45 C82.41,139.94 78.59,139.50 73.42,139.50 C68.51,139.50 66.10,139.58 64.03,140.22 ZM 50.28 172.42 C48.69,169.39 48.03,166.38 48.05,163.00 C48.11,155.87 50.63,149.99 55.49,145.58 C48.45,152.28 46.09,162.68 50.02,171.82 C50.10,172.02 50.19,172.22 50.28,172.42 ZM 112.77 161.90 C112.90,161.32 113.00,156.20 113.00,150.00 L 113.00 162.10 ZM 97.01 148.21 C99.81,150.39 102.88,153.04 106.40,156.28 L 103.25 153.50 C100.94,151.47 98.89,149.72 97.01,148.21 ZM 70.26 192.18 C68.12,190.52 64.85,187.86 61.59,185.08 C60.54,184.18 59.56,183.32 58.65,182.48 C59.47,183.22 60.38,184.01 61.39,184.87 C64.74,187.74 68.08,190.49 70.26,192.18 ZM 78.48 222.00 C77.00,222.00 72.55,219.91 67.89,217.29 C72.53,219.90 76.97,221.97 78.48,222.00 Z"
        fill="rgb(167,137,85)"
      />
      <path
        d="M 0.00 157.00 L 0.00 0.00 L 173.50 0.00 L 347.00 0.00 L 347.00 157.00 L 347.00 314.00 L 173.50 314.00 L 0.00 314.00 L 0.00 157.00 ZM 92.00 225.31 C103.74,219.66 113.78,210.13 118.45,200.20 L 121.40 193.93 L 117.36 189.89 L 113.33 185.86 L 111.33 191.68 C110.24,194.88 109.15,198.16 108.92,198.96 C108.69,199.77 105.35,203.61 101.50,207.50 C94.72,214.35 82.59,222.00 78.51,222.00 C75.63,222.00 61.33,214.04 56.38,209.69 C51.71,205.57 46.00,198.50 46.00,196.81 C46.00,196.33 49.43,198.92 53.62,202.58 C69.56,216.48 83.32,218.41 96.22,208.56 C104.48,202.25 107.39,190.86 103.13,181.47 C101.08,176.96 80.46,157.05 76.40,155.66 C73.41,154.63 68.54,157.35 69.39,159.57 C69.69,160.36 69.50,161.00 68.97,161.00 C68.44,161.00 68.00,161.68 68.00,162.50 C68.00,163.32 68.53,164.00 69.17,164.00 C69.81,164.00 70.02,164.31 69.65,164.69 C68.94,165.40 75.81,173.00 77.17,173.00 C78.28,173.00 89.72,184.95 89.15,185.52 C88.88,185.78 89.08,186.00 89.59,186.00 C90.10,186.00 90.36,187.98 90.16,190.40 C89.77,195.38 86.68,199.00 81.30,200.80 C74.62,203.02 71.15,200.73 42.55,175.12 C38.17,171.20 33.95,168.00 33.16,168.00 C31.96,168.00 31.84,169.72 32.42,178.38 C33.30,191.49 34.90,197.54 39.10,203.65 C45.68,213.22 54.21,220.17 67.78,227.05 C77.17,231.81 78.72,231.70 92.00,225.31 ZM 146.00 200.06 C146.00,199.55 144.54,198.99 142.75,198.81 C139.54,198.50 139.50,198.43 139.20,192.75 C138.77,184.59 137.00,185.60 137.00,194.00 L 137.00 201.00 L 141.50 201.00 C143.98,201.00 146.00,200.58 146.00,200.06 ZM 158.96 200.02 C161.95,198.42 163.23,193.34 161.49,189.98 C157.99,183.21 147.00,186.08 147.00,193.77 C147.00,198.88 154.13,202.61 158.96,200.02 ZM 174.96 199.55 C176.93,197.17 175.74,194.62 171.75,192.67 C167.00,190.35 166.90,188.65 171.54,189.19 C174.33,189.52 175.01,189.28 174.78,188.05 C174.39,186.01 170.32,185.49 167.31,187.10 C163.91,188.92 164.68,192.10 169.00,194.14 C173.77,196.39 173.64,198.59 168.75,198.21 C166.69,198.05 165.00,198.35 165.00,198.87 C165.00,201.19 173.14,201.74 174.96,199.55 ZM 187.96 199.55 C189.93,197.17 188.74,194.62 184.75,192.67 C180.14,190.42 179.99,189.22 184.25,188.81 C188.40,188.41 188.48,186.60 184.38,186.20 C180.88,185.86 177.71,188.26 178.21,190.87 C178.39,191.76 180.10,193.23 182.01,194.14 C186.88,196.44 186.61,198.57 181.50,198.24 C177.76,197.99 177.63,198.07 179.44,199.49 C181.90,201.41 186.39,201.44 187.96,199.55 ZM 198.64 199.50 C199.44,197.42 205.93,197.52 207.48,199.64 C208.14,200.54 209.16,201.10 209.75,200.89 C211.46,200.28 205.02,185.85 203.20,186.21 C201.05,186.63 194.64,201.00 196.59,201.00 C197.40,201.00 198.32,200.32 198.64,199.50 ZM 224.55 198.55 C229.74,193.35 226.62,187.31 218.25,186.33 L 213.00 185.72 L 213.00 193.36 L 213.00 201.00 L 217.55 201.00 C221.04,201.00 222.66,200.43 224.55,198.55 ZM 234.80 199.80 C235.47,199.13 236.00,195.89 236.00,192.42 L 236.00 186.23 L 232.75 186.51 C227.86,186.92 227.84,186.93 228.50,188.00 C228.84,188.55 230.22,189.00 231.56,189.00 C233.79,189.00 233.96,189.33 233.62,192.91 C233.11,198.12 232.33,199.25 230.07,198.04 C227.83,196.84 226.63,197.85 228.13,199.66 C229.51,201.32 233.20,201.40 234.80,199.80 ZM 250.17 199.35 C251.55,198.10 252.00,196.24 252.00,191.85 C252.00,185.65 250.09,183.54 249.88,189.50 C249.81,191.43 249.64,193.45 249.50,194.00 C249.36,194.55 249.19,195.63 249.12,196.39 C248.95,198.36 246.21,199.18 243.93,197.96 C242.38,197.13 242.00,195.84 242.00,191.38 C242.00,187.38 241.65,185.95 240.75,186.26 C239.94,186.54 239.51,188.72 239.53,192.45 C239.55,196.94 239.98,198.51 241.47,199.60 C244.04,201.48 247.94,201.37 250.17,199.35 ZM 264.80 199.80 C267.23,197.37 266.19,194.11 262.50,192.56 C260.58,191.76 259.00,190.63 259.00,190.05 C259.00,189.47 260.58,189.00 262.50,189.00 C266.58,189.00 267.17,187.33 263.43,186.39 C259.67,185.45 256.00,187.44 256.00,190.41 C256.00,192.31 256.79,193.16 259.50,194.14 C263.09,195.43 264.11,197.64 261.58,198.61 C260.80,198.91 259.25,198.67 258.14,198.07 C255.59,196.71 254.25,198.46 256.73,199.91 C259.14,201.31 263.34,201.26 264.80,199.80 ZM 275.00 195.00 C275.00,189.67 275.22,189.00 277.00,189.00 C278.14,189.00 279.00,188.33 279.00,187.45 C279.00,186.20 277.93,185.96 273.49,186.20 C267.97,186.50 265.52,188.22 269.75,188.82 C271.79,189.11 272.00,189.68 272.00,195.07 C272.00,199.67 272.34,201.00 273.50,201.00 C274.67,201.00 275.00,199.67 275.00,195.00 ZM 293.00 200.06 C293.00,199.54 291.09,198.98 288.76,198.81 C285.66,198.58 284.43,198.03 284.19,196.75 C283.92,195.35 284.56,195.00 287.37,195.00 C292.19,195.00 292.94,193.20 288.28,192.81 C285.64,192.59 284.42,191.98 284.18,190.75 C283.91,189.32 284.59,189.00 287.93,189.00 C290.88,189.00 292.00,188.59 292.00,187.50 C292.00,186.37 290.78,186.00 287.00,186.00 L 282.00 186.00 L 282.00 193.50 L 282.00 201.00 L 287.50 201.00 C290.52,201.00 293.00,200.58 293.00,200.06 ZM 298.00 199.00 C298.00,197.59 298.67,197.00 300.26,197.00 C301.50,197.00 303.08,197.90 303.77,199.00 C304.45,200.10 305.71,201.00 306.57,201.00 C307.95,201.00 307.95,200.77 306.62,198.87 C305.33,197.03 305.32,196.44 306.53,194.60 C309.48,190.09 305.87,186.00 298.93,186.00 L 296.00 186.00 L 296.00 193.50 C296.00,197.83 296.42,201.00 297.00,201.00 C297.55,201.00 298.00,200.10 298.00,199.00 ZM 319.80 199.80 C322.25,197.35 321.20,193.98 317.50,192.44 C315.58,191.63 314.00,190.53 314.00,189.99 C314.00,189.44 315.58,189.00 317.50,189.00 C319.42,189.00 321.00,188.56 321.00,188.02 C321.00,186.40 316.03,185.66 313.36,186.88 C309.68,188.56 310.56,192.04 315.25,194.33 C317.31,195.34 319.00,196.55 319.00,197.02 C319.00,198.76 316.80,199.16 313.91,197.96 C310.36,196.49 309.28,197.14 311.52,199.38 C313.42,201.28 318.08,201.52 319.80,199.80 ZM 81.00 193.00 C84.72,189.28 83.64,187.09 73.07,176.90 C67.59,171.62 62.83,166.17 62.48,164.79 C61.57,161.14 64.32,155.40 67.87,153.57 C71.67,151.60 78.63,151.56 82.29,153.47 C83.83,154.27 91.70,160.92 99.79,168.25 C116.65,183.52 120.78,187.00 122.08,187.00 C123.39,187.00 123.28,133.40 121.96,130.93 C120.97,129.07 119.42,129.00 78.02,129.00 L 35.11 129.00 L 33.56 131.22 C32.34,132.96 32.00,136.32 32.00,146.64 L 32.00 159.84 L 36.75 163.91 L 41.50 167.97 L 41.78 152.98 L 42.05 138.00 L 55.28 138.03 L 68.50 138.05 L 62.26 141.08 C53.00,145.57 48.13,153.08 48.05,163.00 C47.99,170.74 51.55,176.53 61.59,185.08 C66.49,189.25 71.40,193.17 72.50,193.80 C75.53,195.53 78.78,195.22 81.00,193.00 ZM 149.07 181.00 C156.48,178.94 159.89,171.37 156.13,165.36 C154.62,162.95 152.63,161.71 147.59,160.03 C143.98,158.83 140.76,157.43 140.45,156.92 C139.27,155.00 143.40,154.76 148.70,156.43 C151.71,157.38 154.30,158.01 154.46,157.83 C155.08,157.12 158.00,151.06 158.00,150.50 C158.00,148.85 150.31,147.00 143.43,147.00 C136.09,147.00 135.67,147.13 132.40,150.40 C129.83,152.97 129.00,154.65 129.00,157.29 C129.00,162.22 131.54,164.78 139.00,167.35 C143.15,168.78 145.61,170.20 145.82,171.29 C146.31,173.86 141.31,173.49 135.47,170.53 C132.79,169.18 130.52,168.17 130.43,168.28 C129.04,170.02 127.07,175.30 127.52,176.04 C128.92,178.30 138.01,181.63 143.50,181.89 C144.60,181.95 147.11,181.54 149.07,181.00 ZM 190.00 177.04 L 190.00 173.08 L 181.25 172.79 C173.04,172.52 172.48,172.36 172.18,170.25 C171.87,168.08 172.13,168.00 179.93,168.00 L 188.00 168.00 L 188.00 164.00 L 188.00 160.00 L 180.00 160.00 C172.67,160.00 172.00,159.83 172.00,158.00 C172.00,156.16 172.67,156.00 180.50,156.00 L 189.00 156.00 L 189.00 151.50 L 189.00 147.00 L 175.00 147.00 L 161.00 147.00 L 161.00 164.00 L 161.00 181.00 L 175.50 181.00 L 190.00 181.00 L 190.00 177.04 ZM 220.00 176.50 L 220.00 172.00 L 213.00 172.00 L 206.00 172.00 L 206.00 159.50 L 206.00 147.00 L 200.50 147.00 L 195.00 147.00 L 195.00 164.00 L 195.00 181.00 L 207.50 181.00 L 220.00 181.00 L 220.00 176.50 ZM 241.00 168.50 L 241.00 156.00 L 246.00 156.00 L 251.00 156.00 L 251.00 151.50 L 251.00 147.00 L 236.11 147.00 L 221.21 147.00 L 220.82 151.05 C220.61,153.28 220.64,155.31 220.89,155.55 C221.13,155.80 223.28,156.00 225.67,156.00 L 230.00 156.00 L 230.00 168.50 L 230.00 181.00 L 235.50 181.00 L 241.00 181.00 L 241.00 168.50 ZM 259.00 178.50 C259.88,176.19 260.44,176.00 266.37,176.00 C272.38,176.00 272.82,176.16 273.41,178.50 C273.99,180.82 274.47,181.00 280.13,181.00 C284.60,181.00 286.08,180.67 285.71,179.75 C285.44,179.06 282.39,171.41 278.93,162.75 L 272.65 147.00 L 266.92 147.00 L 261.19 147.00 L 254.50 162.75 C250.82,171.41 247.58,179.06 247.30,179.75 C246.92,180.66 248.31,181.00 252.42,181.00 C257.50,181.00 258.14,180.76 259.00,178.50 ZM 312.98 178.75 C319.68,175.33 321.50,172.17 321.50,164.00 C321.50,158.59 321.06,156.55 319.40,154.32 C315.46,149.05 311.71,147.68 299.85,147.19 L 289.00 146.74 L 289.00 163.87 L 289.00 181.00 L 298.79 181.00 C306.97,181.00 309.30,180.63 312.98,178.75 ZM 152.22 197.44 C148.09,194.55 149.91,189.00 155.00,189.00 C158.19,189.00 160.00,190.68 160.00,193.64 C160.00,195.55 156.78,199.00 155.00,199.00 C154.69,199.00 153.44,198.30 152.22,197.44 ZM 201.47 193.25 C202.37,189.69 202.90,189.23 204.04,191.03 C205.69,193.64 205.15,196.00 202.89,196.00 C201.09,196.00 200.88,195.60 201.47,193.25 ZM 216.67 198.33 C216.30,197.97 216.00,195.72 216.00,193.33 C216.00,189.25 216.16,189.00 218.80,189.00 C222.15,189.00 224.00,190.62 224.00,193.55 C224.00,197.12 218.83,200.50 216.67,198.33 ZM 298.00 191.50 C298.00,189.14 298.33,188.90 301.25,189.19 C303.73,189.43 304.50,189.97 304.50,191.50 C304.50,193.03 303.73,193.57 301.25,193.81 C298.33,194.10 298.00,193.86 298.00,191.50 ZM 106.50 156.37 C96.70,147.33 90.34,142.88 83.74,140.42 L 77.50 138.10 L 95.25 138.05 L 113.00 138.00 L 113.00 150.00 C113.00,156.60 112.89,161.98 112.75,161.95 C112.61,161.93 109.80,159.42 106.50,156.37 ZM 263.07 167.25 C263.11,166.84 263.94,164.71 264.90,162.52 L 266.66 158.55 L 268.27 163.27 L 269.88 168.00 L 266.44 168.00 C264.55,168.00 263.03,167.66 263.07,167.25 ZM 300.67 172.33 C300.30,171.97 300.00,168.14 300.00,163.83 L 300.00 156.00 L 303.35 156.00 C308.87,156.00 312.03,161.36 310.04,167.37 C308.69,171.46 302.88,174.54 300.67,172.33 Z"
        fill="rgb(254,254,254)"
      />
    </g>
  </svg>